P1
101 103
00000000000000100000000000010000000000000000000000000000000000000000000000000000000000000000000000010000000000000000000000000001000000000000000000000000000000000000000000000000000000000000000000000000000000001000000000000000000000000000000000000000000000000000000000000000000000000000000000000000000000000000000000000000000000000000000000000000000000000000000000000000000000000000000000000000000000000000000000000000000000000000000000000000000000000000000000000001000000000000000000000000000000000000000000000000000010000000000000000000000000000000000000000000000000000000000000000000000010000000000000000000000000000000000000000000000000000000000000000000000000000010000000000000000000000000000000000000000000010000000000001000000000000100000000000000000000000000000000000000000000000000000000000000000000000000000000000000000000000000000000000000000000000000000000000000000000000000000000000000000000000000000100100000000000000000000000000000000000000000000000000000000000000000000000000000000000000000000000100000000000000000000000000000000000000000000000001000000000000000000000000000000000000000000000000000000000000000000000000000000000000000000001000000000000000000000000000000000000000000000000000000000000000000000000000000000000010000000000000001000000000000000000000000000000000000000000000000000000000000000000000000000000000000010001000000000000000000000001000000000000000000000000100000000000000000000000010000000000000000000000000100000000000000000000000000000000000000000000000000000000000100000000000000000000000000000000001000000000000000000000000000000000000000000000000000000000010000000000000000000000000000000000000000000000000000001000000000000000000000000000000000000000000000000000000000000000000000000000000000000000000001000000000000000000000000000010000000000000000000000000000100000000000000000000000000000000000000000000000000000000001000000000000000000000000000000000000000000000000000000000000000000000000000000000000000000000000000000000000000000000000000000000000000000000000000000000000000000000000000000000000000000000000000000000000000000000000000000000000100000000000000000000000000000000000000000000000000000000000000000000000000000000000000000000000000000000000000000000000000000000000000000000001000000000000000000000000000000000000000000000000000000000000000000000000000000000000000000000000000000000000000000000000000000000000000000000000000000000000000000000000000000000000000010000000000000000000000000000000000000000000000000000000000000000000010000000000000000000000000000000000000000000000000000000000000000000000000000000000000000000000000000000000000000000000000000000000000000000000000000000000000000000000000000000000000010000000000000000000000000000000000000000000000000100000000000000000000000000000000000100000000000001000000000000000000100000000000000000000000000000001000000000000000000000000000000000000000000000000000000000000001010000000001000000000000000000000000000000000000000000000000000000000000000000000000000000000000000000000000000000001000000000000000000000000000000000000000000000000000010000000000000000100000000000000000000000000000000000000000000000000000000000000000000000000000000000000000000000000000000000000000000000000100000000000000000000000000000000000000000000000000000000000000000000000000000000000000000000001000000000000000000000000000000000000000000000000000000000000000000000000000000000000000000000000000000000000000000000000000000000000000000000000000000000000000100000000000000000000000000000000000000000000000000100000000000000000010000000000000000000000000000000000000000000000000000000000000000000000000100000000000000000000000000000000000000000001000001000000000000000000000000000000000000000010000000000000000000000000100000000000000000000000000000000000000000010000000000000000000000100000000000000000000000000000000010000000000000000000000000000000000000000000000000000000000000000000000000000000000000000000000000000000000000000000000000000000000000000000000000000000000000000000000000000000010000000000000000000000000000000000000000000000000000000000000000000111111111111111111111111111111100000001000000000000000000000000000000000000000000000000000000000000001000000000000000000000000000001000000000000000000000000000000000000000000000000000000000000001000000010000000000000000000000000000010000000000000000000000000000000000000000000000000000000000000000000000100000000000000000000000000000100000000000000000100000000000000000000000000000000000000001000000000001000000000000000000000000000001000000000000000000000000000000000000000000001000000001000000000000000010000000000000010000000000000010000000000000000000000000000000000000000000000000000000000000000000000100000000000001110000000000000100000000000000000000000000000000000000000000000000000000000000000000001000000000000111110000000000001000000000100000000000000000000000001000000000000000000001010000000000010000000000011111110000000000010000000000000000000000000000000000000000000000000000010000000000000000100000000001111111110000000000100000000000100000000010000000000000000000000000000000000000000000000001000000000000111110000000000001000000000000000000000000000000000000000000000010000000000000000000000010000000000011111110000000000010000000000000000010000000000000000000000000000000000000000000000000000100000000001111111110000000000100000000000000000000000000100000000000000000000000000000000000000000001000000000111111111110000000001000000000000000000001000000000000000000000000000000000000000000000000010000000011111111111110000000010000000000000000000000000000000000000000000000000000000000000000000000100000000001111111110000000000100000000000000000000000000000000000000000010001000000000000000000000001000000000111111111110000000001000100000000000000000000000000000000000000000000000000000000000000000010000000011111111111110000000010000000000000000000000000000000000000000000000000000000000000000000000100000001111111111111110000000100000000000000000000000000000000000000000010000000000000000000000000001000000111111111111111110000001000000000000000000000000000000000000000000000000000000000000000000000010000000011111111111110000000010000000000000000000000000000000000000000000000000000000000000000000000100000001111111111111110000000100000000000000000000000000000000000000000000000000000000000000000000001000000111111111111111110000001000010000000000000000000000000000000000000000000000000000000000000000010000011111111111111111110000010100010000000000000100000010000000000000000000000000000000000010000000100001111111111111111111110000100000000100000000000000000000000000000000000000000000000000000000000001000000000000011100000000000001000000000000000000000000000000000000000000000000100000000000000000000010000000000000111000000000000010000000000000000000000000000000000000010000000000000000000000000000000100000000000001110000000000000100000000000000000000000000000000000000000000000000000000000000000000001000000000000000000000000000001000000000000000000000000000000000000000000000000000000000000000000000010000000000000000000000000000010000000000000000000000000000000000000000000010000000010000000000001000100000000000000000000000000000100000010000000000000000000000000000010000000000000000000000000000000001000000000000000000000000000001000000000000000100000000000000001000000000000000000000000000000000000011111111111111111111111111111110000000000100000000000000000000000000000000000000000000000000001000000000000000000000000000000000000000000000000000000000000000000000000000000000000000000000000000000000000000000000000000000000000000000000000000000000000000000000000000000000000000000000000000000000000000000000000000000000000000000000000000000000010000000000000000000000000010000000000000100000000000000000000000000000000000000000000000000000110000000000000000000000000000000000000000000000000000000000000000000000000000000000000000000000000000000000000000000000000000000001000000000000000000000000000000000000000000000000000000000000000000001000000000000000000000000000000000000000000000000000000000000000000000000000000000000000000000000000001000000000000010000000001000000000000000000000000000000000000000000000000000000000000000000000000000000000000000000000000000000000000000000000000000000000000000000000000001000000000000000000100000000000000000000000000000000000000000000000000000100000000100000000000000000000000000000000000000000000000000000000000000000000000000000000000000000000000000010000000000000000000000000000000000010000000000000000000000000000000000000000000000000000000000000000000000000000000000000000000000000000000000000000000000000000000000000000000000000000000000000000000000000000000000000000000000000000000000000000000000000000000000000000000000000000000000000000000000000000000000000000000000010000000000000000010000000000000000000010000000000000000000000000000000000000000000000000000000001000000000000000000000000001000000000000000000000000000000000000000000000000000000000000000000000000000000000000000000000000000000000000000000000000000000000000000001000000000000000000000000000000000000000000000000000000000000000000000000000000000000000000000000000000000000001000000000000000000001000000100000000000000000000000000000000000000000000000000000000000000000000000000000000000000000000000000000000000000000000000000000100000000000000000000000000000000000000000000000000000000000000000100000000000000000000000000000000000000000000000000000000000000000001000000000000001000000000000000000000000000000000000000000000000000000000000010000000000000000000000000000000000000000000000000000000000000000000000000000000000000000000000000000000000000000000000000000000000000000000000000000000000000000000000000000000000000000000001000000000000000000000000001000000000000000000000010000000000000000000000000000000000000100000000000001000001000000000100000000000000000000000000000000000000000000000000000000000000000000000000000000000000000000000000000000000000000000000000000000001000000000000000000000000000000000000000000000000000000100000000000000000000000000000000000000000010000000000000000000000000000000010000000000000000000000000000000000000000000000000000000000000000000000000000000000000000000000000001000000000000000000000000000000000010000000000000000000000000000000000000000000000000000000000000000000000000000100000000000000000000000000000000000000000000000000000000000001000000000000000000000000000000000000000000000000000000000000000000000000000000000000000000000000000000000000000